<svg id="Isolation_Mode" data-name="Isolation Mode" xmlns="http://www.w3.org/2000/svg" viewBox="0 0 83.27 99.68"><defs><style>.cls-2{fill:#263238}</style></defs><path d="M252.9 146.44l-5.15 1.84-2.21-6.73c-4.06-12.41-17-19.05-28.89-14.81s-18.22 17.8-14.15 30.26l2.2 6.73-5.17 1.85a8.22 8.22 0 00-4.82 10.28L209 219.6a7.73 7.73 0 009.86 5.11l53.38-19.09a8.27 8.27 0 004.86-10.38l-14.3-43.79a7.71 7.71 0 00-9.9-5.01zm-40.68 7a13.19 13.19 0 017.78-16.52 12.35 12.35 0 0115.81 8.08l2.2 6.73-23.59 8.43zm30 38.86l3.66 11.18a.91.91 0 01-.57 1.12l-5.12 1.83a.82.82 0 01-1-.54l-3.66-11.18a10 10 0 01-9-7 10.51 10.51 0 016.19-13.18 9.83 9.83 0 0112.54 6.47 10.68 10.68 0 01-3.03 11.33z" transform="translate(-194.3 -125.46)" fill="#1fa9ff"/><path class="cls-2" d="M247.52 148.16c0 .14-9.55 3.73-21.43 8s-21.57 7.67-21.62 7.53 9.55-3.72 21.44-8 21.56-7.69 21.61-7.53zm11.34 1.84s.05.08.11.26.17.46.29.78l1.07 3 3.84 11.18c1.6 4.74 3.51 10.36 5.63 16.6 1 3.13 2.18 6.39 3.28 9.83a14.92 14.92 0 01.75 5.48 7.37 7.37 0 01-.81 2.77 7.64 7.64 0 01-1.89 2.23 17.69 17.69 0 01-5.08 2.59l-5.15 1.85-9.75 3.49-16.51 5.94-11.15 3.92-3 1-.8.26a.85.85 0 01-.27.07s.08-.05.26-.12l.77-.31 3-1.13 11.09-4.08 16.48-6 9.73-3.52 5.15-1.86a17.13 17.13 0 004.93-2.51 7.11 7.11 0 001.76-2.07 6.58 6.58 0 00.75-2.57 14.39 14.39 0 00-.72-5.29c-1.08-3.4-2.22-6.69-3.25-9.82-2.07-6.25-3.94-11.89-5.52-16.63s-2.8-8.54-3.68-11.23c-.42-1.3-.74-2.33-1-3.07-.1-.32-.17-.59-.24-.8a1 1 0 01-.07-.24z" transform="translate(-194.3 -125.46)"/><path class="cls-2" d="M230.7 136.21s-.53-.26-1.51-.66a13.1 13.1 0 00-4.37-.87 14.93 14.93 0 00-6.44 1.21 14.4 14.4 0 00-6.11 5.11 13.52 13.52 0 00-2.35 7.59 23.39 23.39 0 001 6.55c.53 1.82 1.06 3.27 1.42 4.28a11.17 11.17 0 01.52 1.58 8.78 8.78 0 01-.71-1.51c-.41-1-1-2.42-1.58-4.25a22.74 22.74 0 01-1.15-6.65 13.78 13.78 0 012.4-7.88 14.63 14.63 0 016.35-5.26 14.88 14.88 0 016.65-1.14 12.59 12.59 0 014.43 1.05 9.29 9.29 0 011.09.6 1.54 1.54 0 01.36.25zm.46 39.14a2.14 2.14 0 01.5-.26 11.1 11.1 0 011.55-.55 10.64 10.64 0 012.6-.43 8.54 8.54 0 013.5.52c2.56.9 4.91 3.51 6.07 7a10 10 0 01.05 5.74 13.05 13.05 0 01-3.27 5.41l.06-.27c1.33 3.65 2.78 7.61 4.28 11.74l.09.25-.25.09-2.29.76-5 1.67-.25.08-.08-.25c-1.37-4.14-2.87-8-4-11.79l.22.17a10 10 0 01-5.36-2.11 12.06 12.06 0 01-3.35-4 9.2 9.2 0 01-1.06-4.51 10.39 10.39 0 01.84-3.86 10.53 10.53 0 013.35-4.4 6.11 6.11 0 011.73-1 15.09 15.09 0 00-1.64 1.08 10.7 10.7 0 00-3.18 4.39 9.46 9.46 0 00.31 8.07 11.64 11.64 0 003.27 3.84 9.61 9.61 0 005.11 2h.17l.05.16c1.1 3.71 2.61 7.6 4 11.76l-.33-.16 5-1.67 2.28-.77-.16.34c-1.49-4.13-2.93-8.1-4.25-11.75v-.15l.12-.12a12.74 12.74 0 003.16-5.17 9.67 9.67 0 000-5.49c-1.09-3.36-3.34-5.91-5.77-6.81a8.67 8.67 0 00-3.4-.57 12.07 12.07 0 00-2.56.35c-1.4.37-2.1.71-2.11.67z" transform="translate(-194.3 -125.46)"/></svg>