<svg xmlns="http://www.w3.org/2000/svg" viewBox="0 0 278.32 370.07"><defs><style>.cls-1,.cls-6{fill:#1ba2ff}.cls-2{fill:#263238}.cls-3{fill:#455a64}.cls-6{opacity:.1}.cls-7{fill:#e0e0e0}.cls-8,.cls-9{fill:#1690c9}.cls-9{opacity:.2}.cls-12{fill:#ffbe9d}</style></defs><g id="Plant"><path class="cls-1" d="M369.44 330.83C354 320 350.49 300 351.1 282c.1-3-.23-6.17 1.2-8.81s4.77-4.44 7.46-3.17c2.23 1.05 3.21 3.64 4.45 5.79a17.62 17.62 0 007.05 6.73c1.92 1 4.29 1.6 6.18.56 2.59-1.43 2.89-5 2.88-8q-.06-8.35-.11-16.72a27.83 27.83 0 01.9-8.88c.93-2.83 3-5.47 5.83-6.27s6.36.85 7 3.77a27.26 27.26 0 01.09 3.73c.08 1.24.66 2.61 1.84 3s2.39-.5 3.28-1.38c3.09-3 5.18-6.9 7.14-10.77s3.86-7.83 6.66-11.12 6.67-5.9 10.95-6.14 8.84 2.4 9.93 6.6-1.38 8.49-4.05 11.9A66.66 66.66 0 01415.84 256a5.49 5.49 0 00-2.32 2.5c-.65 2 1.24 4 3.2 4.63 2.23.74 4.65.51 7 .78s4.86 1.3 5.74 3.51c1.22 3.05-1.33 6.26-3.85 8.35a57.13 57.13 0 01-16.92 9.77c-2.19.8-4.51 1.51-6.28 3.06s-2.85 4.23-1.77 6.33 3.82 2.79 6.12 2.36 4.37-1.68 6.56-2.51c4.11-1.55 9.42-1.27 12.05 2.29a9.43 9.43 0 011 8.36 21.67 21.67 0 01-4.53 7.39 57.37 57.37 0 01-24.54 17.25c-9.53 3.3-18.37 4.2-27.84.74" transform="translate(-155.73 -83.05)"/><path class="cls-2" d="M429.47 226.77l-.29.28-.89.8c-.79.69-1.94 1.71-3.39 3.06a112.55 112.55 0 00-11.42 12.33c-2.22 2.77-4.54 5.91-7 9.32s-5 7.09-7.51 11.05a134.24 134.24 0 00-7.38 12.77c-1.15 2.29-2.18 4.68-3.23 7.12l-3.17 7.41a274.68 274.68 0 00-10.65 28.77 133.43 133.43 0 00-5 24.53 98.56 98.56 0 00-.28 16.89c.16 2 .31 3.53.45 4.58.06.5.11.89.14 1.19a2 2 0 010 .4 1.84 1.84 0 01-.09-.4c0-.29-.11-.68-.19-1.18-.17-1-.36-2.58-.55-4.57a93.11 93.11 0 01.11-16.94 130.76 130.76 0 014.88-24.64 266.58 266.58 0 0110.64-28.85l3.17-7.41c1.05-2.43 2.09-4.85 3.25-7.14a133.58 133.58 0 017.43-12.81c2.57-4 5.14-7.63 7.57-11s4.78-6.54 7-9.3a106.21 106.21 0 0111.58-12.24c1.47-1.33 2.65-2.32 3.46-3l.92-.75a1.51 1.51 0 01.44-.27z" transform="translate(-155.73 -83.05)"/><path class="cls-2" d="M391.31 276.12a5.85 5.85 0 01-.29-1.28c-.16-.83-.35-2-.56-3.52-.42-3-.87-7.1-1.34-11.66s-1-8.67-1.44-11.63c-.23-1.48-.42-2.68-.57-3.51a7 7 0 01-.17-1.3 6.06 6.06 0 01.38 1.26c.21.81.47 2 .75 3.48.56 3 1.13 7.08 1.6 11.64s.86 8.57 1.18 11.67c.15 1.41.27 2.59.38 3.54a6.42 6.42 0 01.08 1.31z" transform="translate(-155.73 -83.05)"/><path class="cls-2" d="M429.75 268.93a8.67 8.67 0 01-1.54.19c-1 .08-2.41.2-4.17.41-3.52.38-8.37 1.07-13.68 2.07s-10.08 2.13-13.5 3c-1.72.45-3.1.84-4.05 1.11a9.59 9.59 0 01-1.5.37 8.15 8.15 0 011.43-.58c.94-.33 2.31-.78 4-1.28 3.4-1 8.17-2.19 13.5-3.2a133.7 133.7 0 0113.76-1.88c1.77-.16 3.21-.22 4.2-.24a7.9 7.9 0 011.55.03zm-55.19 49.9a2.53 2.53 0 01-.26-.47l-.66-1.39c-.56-1.21-1.33-3-2.26-5.18-1.85-4.41-4.22-10.57-6.75-17.41s-4.83-13-6.59-17.45c-.87-2.15-1.58-3.93-2.1-5.25-.23-.57-.41-1-.57-1.43a1.93 1.93 0 01-.16-.51s.11.15.27.47l.65 1.39c.57 1.21 1.34 3 2.27 5.18 1.85 4.4 4.22 10.57 6.75 17.41s4.83 13 6.59 17.45c.86 2.15 1.57 3.93 2.1 5.24.22.58.41 1.05.56 1.43a1.55 1.55 0 01.16.52z" transform="translate(-155.73 -83.05)"/><path class="cls-2" d="M425.64 302.37a1.9 1.9 0 01-.51.21l-1.48.49-5.47 1.78c-4.62 1.49-11 3.64-18 6s-13.4 4.46-18.05 5.87c-2.33.7-4.21 1.25-5.52 1.6l-1.52.4a2.13 2.13 0 01-.54.1 2.12 2.12 0 01.51-.21l1.48-.5 5.47-1.77c4.62-1.5 11-3.64 18-6s13.4-4.46 18.05-5.86c2.32-.7 4.21-1.25 5.52-1.6l1.51-.4a1.72 1.72 0 01.55-.11z" transform="translate(-155.73 -83.05)"/></g><g id="Device"><path class="cls-3" d="M352.16 377.43l-99.89-.43a21.76 21.76 0 01-21.65-21.85l1.06-250.4a21.76 21.76 0 0121.85-21.67l99.88.46a21.76 21.76 0 0121.66 21.85L374 355.77a21.75 21.75 0 01-21.84 21.66z" transform="translate(-155.73 -83.05)"/><path d="M353.27 92.15l-19.36-.08a4.81 4.81 0 00-4.73 4.93v3.51a4.81 4.81 0 01-4.72 4.9l-37.75-.18a4.81 4.81 0 01-4.68-4.94v-3.55a4.82 4.82 0 00-4.68-4.94h-6.81l-17-.08a15.25 15.25 0 00-15.31 15.18l-1 244.41a15.23 15.23 0 0015.17 15.3l99.68.46a15.24 15.24 0 0015.31-15.17l1-244.41a15.24 15.24 0 00-15.12-15.34z" transform="translate(-155.73 -83.05)" fill="#fff"/><path class="cls-1" d="M339.86 334.44l-74.13-.34c-.76 0-1.38-.84-1.38-1.87l.08-19.39c0-1 .63-1.86 1.4-1.86l74.13.35c.76 0 1.38.84 1.38 1.86l-.09 19.39c0 1.03-.63 1.86-1.39 1.86z" transform="translate(-155.73 -83.05)"/><text transform="matrix(.96 0 0 1 130.12 242.01)" font-size="8.3" fill="#e8e8e3" font-family="Montserrat-Regular,Montserrat Regular">SING UP</text><path class="cls-1" transform="rotate(.26 18495.135 -34190.366)" d="M254.78 162.93h25.72v4.72h-25.72z"/><path class="cls-6" transform="rotate(.26 18495.135 -34190.366)" d="M254.78 162.93h25.72v4.72h-25.72z"/><path class="cls-7" d="M355.92 192a2.3 2.3 0 00.59-.14 1.6 1.6 0 001-1.35V177.2a1.88 1.88 0 00-.28-1.31 1.46 1.46 0 00-1.18-.61h-16.01l-83.64-.31a1.34 1.34 0 00-1.1.56 1.88 1.88 0 00-.26 1.3v12a8.84 8.84 0 000 1.4 1.34 1.34 0 00.78.91 1.51 1.51 0 00.61.1h5.1l22.2.11 37.61.23 25.35.2 6.89.08h2.4-34.64l-37.61-.12-22.2-.08h-5.1a2.11 2.11 0 01-.81-.15 1.86 1.86 0 01-1.08-1.25 3.25 3.25 0 01-.07-.8v-12.73a5.51 5.51 0 010-.8 1.88 1.88 0 011.86-1.58l83.64.46 14.45.11H356a1.74 1.74 0 011.4.73 2.18 2.18 0 01.32 1.47v6.39c0 3-.07 5.3-.09 6.89a1.62 1.62 0 01-1.05 1.39 1.2 1.2 0 01-.66.21z" transform="translate(-155.73 -83.05)"/><path class="cls-8" transform="rotate(.26 18515.009 -34172.782)" d="M261.68 181.13h47.04v4.41h-47.04z"/><path class="cls-9" transform="rotate(.26 18515.009 -34172.782)" d="M261.68 181.13h47.04v4.41h-47.04z"/><path class="cls-1" transform="rotate(.26 18495.235 -34146.292)" d="M254.59 206h25.72v4.72h-25.72z"/><path class="cls-6" transform="rotate(.26 18495.235 -34146.292)" d="M254.59 206h25.72v4.72h-25.72z"/><path class="cls-7" d="M355.26 235a4.87 4.87 0 00.59-.11 2.07 2.07 0 001.27-1.14 2.65 2.65 0 00.17-1.26v-11.94a2.22 2.22 0 00-.29-1.32 2 2 0 00-1.09-.84 6.14 6.14 0 00-1.51-.09H340l-83.36-.3a1.84 1.84 0 00-1.82 1.61v12a6.16 6.16 0 00.07 1.39 1.78 1.78 0 00.73 1 2 2 0 001.24.32h4.35l22.13.12 37.47.23 25.26.19 6.87.09h1.78-33.91l-37.48-.11-22.13-.09h-4.34a2.45 2.45 0 01-1.53-.41 2.3 2.3 0 01-.94-1.31 6.3 6.3 0 01-.08-1.54v-12a2.37 2.37 0 012.35-2.07l83.35.46 14.39.11a6.15 6.15 0 011.59.11 2.2 2.2 0 011.24 1 2.48 2.48 0 01.32 1.46v11.98a2.9 2.9 0 01-.2 1.31 2.15 2.15 0 01-1.35 1.14 1.58 1.58 0 01-.74.01z" transform="translate(-155.73 -83.05)"/><path class="cls-1" transform="rotate(.26 18495.335 -34102.219)" d="M254.4 250.91h25.72v4.72H254.4z"/><path class="cls-6" transform="rotate(.26 18495.335 -34102.219)" d="M254.4 250.91h25.72v4.72H254.4z"/><path class="cls-7" d="M355.07 279.92a4.87 4.87 0 00.59-.11 2.08 2.08 0 001.27-1.13 2.67 2.67 0 00.17-1.27V265.5a2.22 2.22 0 00-.29-1.32 2 2 0 00-1.09-.84 6.67 6.67 0 00-1.51-.09h-14.4l-83.35-.31a1.83 1.83 0 00-1.82 1.61v12a6.16 6.16 0 00.07 1.39 1.78 1.78 0 00.73 1 1.93 1.93 0 001.24.32H261l22.12.12 37.48.23 25.26.2 6.87.08h1.78-33.92l-37.47-.12-22.13-.09h-4.39a2.5 2.5 0 01-1.53-.4 2.33 2.33 0 01-.94-1.32 6.24 6.24 0 01-.08-1.53v-12.06a2.36 2.36 0 012.35-2.06l83.35.46 14.39.1a6.62 6.62 0 011.59.11 2.2 2.2 0 011.24 1 2.41 2.41 0 01.32 1.46v11.98a2.87 2.87 0 01-.2 1.31 2.11 2.11 0 01-1.35 1.14 1.58 1.58 0 01-.67.05z" transform="translate(-155.73 -83.05)"/><path class="cls-8" transform="rotate(.26 18512.905 -34128.703)" d="M261.49 224.2h47.04v4.41h-47.04z"/><path class="cls-9" transform="rotate(.26 18512.905 -34128.703)" d="M261.49 224.2h47.04v4.41h-47.04z"/><path class="cls-8" d="M265.78 271.76a2.06 2.06 0 11-2-2.2 2.13 2.13 0 012 2.2zm6.37.03a2.06 2.06 0 11-2-2.2 2.12 2.12 0 012 2.2zm6.37.03a2.06 2.06 0 11-4.11 0 2.06 2.06 0 114.11 0zm6.38.03a2.06 2.06 0 11-2-2.21 2.13 2.13 0 012 2.21zm6.37.03a2.06 2.06 0 11-2-2.21 2.13 2.13 0 012 2.21zm6.37.03a2.06 2.06 0 11-2.05-2.21 2.12 2.12 0 012.05 2.21zm6.36.03a2.06 2.06 0 11-2-2.21 2.14 2.14 0 012 2.21zm6.39.06a2.06 2.06 0 11-2.05-2.2 2.13 2.13 0 012.05 2.2zm6.37 0a2.06 2.06 0 11-2.05-2.2 2.13 2.13 0 012.05 2.2z" transform="translate(-155.73 -83.05)"/><path class="cls-8" d="M265.78 271.76a2.06 2.06 0 11-2-2.2 2.13 2.13 0 012 2.2zm6.37.03a2.06 2.06 0 11-2-2.2 2.12 2.12 0 012 2.2zm6.37.03a2.06 2.06 0 11-4.11 0 2.06 2.06 0 114.11 0zm6.38.03a2.06 2.06 0 11-2-2.21 2.13 2.13 0 012 2.21zm6.37.03a2.06 2.06 0 11-2-2.21 2.13 2.13 0 012 2.21zm6.37.03a2.06 2.06 0 11-2.05-2.21 2.12 2.12 0 012.05 2.21zm6.36.03a2.06 2.06 0 11-2-2.21 2.14 2.14 0 012 2.21zm6.39.06a2.06 2.06 0 11-2.05-2.2 2.13 2.13 0 012.05 2.2zm6.37 0a2.06 2.06 0 11-2.05-2.2 2.13 2.13 0 012.05 2.2z" transform="translate(-155.73 -83.05)" opacity=".2"/><path class="cls-1" d="M307.71 127.63A3.88 3.88 0 00310 124a3.64 3.64 0 10-7.27 0 3.86 3.86 0 002.31 3.62c-5.59.84-5.34 6.92-5.34 6.92l13.24.06s.32-6.13-5.23-6.97z" transform="translate(-155.73 -83.05)"/><path class="cls-6" d="M307.71 127.63A3.88 3.88 0 00310 124a3.64 3.64 0 10-7.27 0 3.86 3.86 0 002.31 3.62c-5.59.84-5.34 6.92-5.34 6.92l13.24.06s.32-6.13-5.23-6.97z" transform="translate(-155.73 -83.05)"/><path class="cls-1" transform="rotate(.26 18534.747 -34214.696)" d="M282.01 138.49h47.19v5.64h-47.19z"/><path transform="rotate(.26 18534.747 -34214.696)" opacity=".2" fill="#1ba2ff" d="M282.01 138.49h47.19v5.64h-47.19z"/></g><g id="Character"><path class="cls-1" d="M204.41 448.45v-8.55l-15.33-.1-.08 12.92.95.07c4.23.28 21.52.67 24.35-.2 3.12-.98-9.89-4.14-9.89-4.14z" transform="translate(-155.73 -83.05)"/><path class="cls-2" d="M214.62 451.78c0 .15-5.73.26-12.8.26s-12.81-.11-12.81-.26 5.73-.26 12.81-.26 12.8.12 12.8.26zm-9.94-1.58c-.12-.07 0-.52.32-1s.72-.69.82-.59-.1.48-.41.9-.6.76-.73.69zm.98.56c-.13-.05-.06-.55.24-1.09s.7-.85.81-.76-.08.52-.36 1-.55.91-.69.85z" transform="translate(-155.73 -83.05)"/><path class="cls-2" d="M193.63 451.75c-.06 0-.29-.19-.62-.56a9.5 9.5 0 00-1.35-1.35 3.48 3.48 0 00-1.66-.73c-.46-.06-.77 0-.79-.06s.25-.27.81-.3a3 3 0 012 .68 5.32 5.32 0 011.28 1.57c.27.41.38.71.33.75zm11.1-3.16c.08.12-.19.42-.63.58s-.83.11-.85 0 .29-.31.67-.45.73-.25.81-.13zm-.24-.83c0 .15-.39.27-.91.28s-.93-.11-.92-.25.42-.27.91-.27.91.1.92.24z" transform="translate(-155.73 -83.05)"/><path class="cls-1" d="M242.17 448.45v-8.55l-15.34-.1-.12 12.79.95.07c4.23.27 21.52.8 24.35-.07 3.16-.98-9.84-4.14-9.84-4.14z" transform="translate(-155.73 -83.05)"/><path class="cls-2" d="M252.37 451.8c0 .15-5.73.26-12.8.26s-12.81-.11-12.81-.26 5.73-.26 12.81-.26 12.8.12 12.8.26zm-9.93-1.6c-.13-.07 0-.52.31-1s.73-.69.83-.59-.11.48-.41.9-.61.76-.73.69zm.97.56c-.13-.05-.06-.55.24-1.09s.7-.85.81-.76-.08.52-.36 1-.55.91-.69.85z" transform="translate(-155.73 -83.05)"/><path class="cls-2" d="M231.38 451.75c-.06 0-.29-.19-.62-.56a9 9 0 00-1.35-1.35 3.46 3.46 0 00-1.65-.73c-.47-.06-.78 0-.8-.06s.26-.27.81-.3a3 3 0 012 .68 5.54 5.54 0 011.33 1.54c.22.44.34.74.28.78zm11.1-3.16c.08.12-.19.42-.62.58s-.83.11-.86 0 .29-.31.68-.45.73-.25.8-.13zm-.24-.83c0 .15-.39.27-.91.28s-.93-.11-.92-.25.42-.27.91-.27.91.1.92.24z" transform="translate(-155.73 -83.05)"/><path class="cls-12" d="M298.64 194.56c-.4-.41-1.38-.22-1.38-.22a5.35 5.35 0 000-1.73c-.18-.57-1.44-.46-1.44-.46a5.79 5.79 0 010-1.42.49.49 0 00-.29-.5 4.57 4.57 0 00-1.89-.35c-.77-.55 2.35-4.92 3.51-6.32s.95-2.48-.08-2.48c-.7 0-4.35 4.2-5.46 5.61s-4.1 5.33-4.2 2.2-1.36-5.5-2.14-5.9-1.64.54-1.2 1.41a11.66 11.66 0 01.7 3.08 7.42 7.42 0 01-.12 2.53 28 28 0 01-1.35 4.51h-.07s-21.83 20.93-23.4 22.42-29.78-1.59-35.46-2.19a39.64 39.64 0 00-5.85-.4c-2.46.11-2.9.46-5.37.49a121.47 121.47 0 00-18.53 1.63 15.34 15.34 0 00-12.06 10.46c-5.74 17.9-18.71 60.27-21 84.07a101.41 101.41 0 00-4.69 9.68c-1.6 4.37-1.21 4.52-.67 4.62 1.45.27 3.12-7.59 3.74-5.69s-3.15 9.37-1.62 9.59c2 .29 3.58-8 3.77-8.66s1.19-.44 1 .17c-.29.88-3.11 10.21-1.15 10.51 1.09.17 1.2-1.81 1.2-1.81s2-8.92 2.91-8.75-.06 5.45-.52 7.21.19 2.66 1.12 2.22c.64-.3 2.18-5.64 2.59-7.39s1.47-6.56 2.88-3.77 3.55 4.41 4.43 4.45a1 1 0 00.5-1.79 11.51 11.51 0 01-1.94-2.49 7.42 7.42 0 01-1-2.35 26.36 26.36 0 01-.7-5.06l-.16-1c2.24-11.1 8.69-43.64 18-64.43l3.81 7.85 1.66 5.82L186.55 285l43.41-.57-6.47-24.94 7.86-26c8.51.19 30.37.51 34-1.13 4.58-2.05 28.28-31.92 28.28-31.92a56.76 56.76 0 004.43-3.85s1.45-1.14.58-2.03z" transform="translate(-155.73 -83.05)"/><path class="cls-1" d="M184.66 266.5c1.25-4.3 7.72-25.56 7.72-25.56s3.18 17.33 2.35 19.42a37.55 37.55 0 01-2.73 5.16c-7.34 11.18-6.38 16.76-6.38 16.76l44.38-1.35c.11-6.2-3.56-20.62-4.33-22.91s1.78-9.84 1.78-9.84 5-5.09 4.81-7.71a42.65 42.65 0 00-.87-7l27 1-.85-18.31-38.84-3.86c-1.34 3.82-13.55 1.95-13.55 1.95-13.19.43-14 2.85-19.49 7.11s-14.55 40.82-14.55 40.82z" transform="translate(-155.73 -83.05)"/><path class="cls-2" d="M210.88 262.18a9.76 9.76 0 01-2.34.11c-1.44 0-3.44-.09-5.63-.31s-4.16-.54-5.58-.81a10.27 10.27 0 01-2.27-.58 10.93 10.93 0 012.33.21c1.43.19 3.39.44 5.57.66s4.16.36 5.6.47a10.8 10.8 0 012.32.25zm3.03-3.78a9.52 9.52 0 01-2.42.83 44.38 44.38 0 01-6.06 1.16 43.1 43.1 0 01-6.16.29 10.69 10.69 0 01-2.55-.23 14.93 14.93 0 012.55-.14c1.56-.05 3.73-.16 6.1-.44s4.5-.68 6-1a16.36 16.36 0 012.54-.47zm14.92-16.82a10.06 10.06 0 01-.3 2.27c-.26 1.38-.67 3.28-1.18 5.36s-1 4-1.44 5.31a9.37 9.37 0 01-.78 2.14 10.18 10.18 0 01.42-2.24c.38-1.56.82-3.35 1.3-5.33s.93-3.77 1.32-5.32a10.89 10.89 0 01.66-2.19zM185.12 264a46.48 46.48 0 01-6.83-1.59 47 47 0 01-6.69-2.1 49.4 49.4 0 016.83 1.6 47.85 47.85 0 016.69 2.09zm46.72-30.74a3.64 3.64 0 01-1.15 0 11.14 11.14 0 01-3.05-.73 12.65 12.65 0 01-4-2.42 12.38 12.38 0 01-3.25-4.68 12.83 12.83 0 01-.9-5.64 8.85 8.85 0 011.37-4.46 4.55 4.55 0 012.53-1.86 3.26 3.26 0 01.86-.12.85.85 0 01.29 0c0 .05-.41 0-1.09.27a4.64 4.64 0 00-2.28 1.87c-1.37 2.14-1.74 6-.3 9.7a12.37 12.37 0 003.1 4.53 13 13 0 003.79 2.43 19.6 19.6 0 004.08 1.11zm23.31.86a80.37 80.37 0 01-.24-9.21 84.22 84.22 0 01.27-9.22 79 79 0 01.25 9.22 82.64 82.64 0 01-.28 9.21z" transform="translate(-155.73 -83.05)"/><path class="cls-12" d="M218.46 213.41c.11-2.23.35-4.75.35-4.75a6.69 6.69 0 005.85-6.31c.33-5.7 0-18.85 0-18.85l-10-5.11-11.06 8.72 1.68 28.5 10.17.65a2.94 2.94 0 003.01-2.85z" transform="translate(-155.73 -83.05)"/><path d="M219.46 197.84s0 .11-.09.25a.82.82 0 01-.64.28c-.64 0-1.25-.74-1.48-1.61a2.84 2.84 0 010-1.26 1.09 1.09 0 01.6-.86.53.53 0 01.43 0 .48.48 0 01.22.23c.08.17 0 .27 0 .26s0-.09-.11-.2a.36.36 0 00-.47-.1.9.9 0 00-.41.71 2.57 2.57 0 000 1.13c.2.78.73 1.41 1.21 1.47a.71.71 0 00.54-.15c.14-.08.18-.16.2-.15z" transform="translate(-155.73 -83.05)" fill="#eb996e"/><path class="cls-2" d="M228.09 180.43c-.77-2.63-3.56-3.93-6.1-4.65-3.87-1.1-8.06-1.58-11.84-.19s-8.32 3.84-8.32 8c-2.23-.18-3.5 1.77-4.39 4.19a16.45 16.45 0 00-.95 4.6c-.29 5.46-1.81 13-5.35 17-2 2.23-4.78 3.77-5.92 6.55-1 2.42-.47 5.27-1.41 7.71-.83 2.15-2.66 3.68-4 5.55a14.83 14.83 0 00-.95 14.39 18.28 18.28 0 0010.88 9.42 25.51 25.51 0 0014.36.13 24 24 0 009.62-4.76 16.17 16.17 0 005.52-9.33c.7-4.08-.44-8.23-1.28-12.29-2.66-12.83-1.9-13.5 1.45-25.4.08-.21.13-.43.19-.65s.08-.31.13-.47a7.55 7.55 0 00.16-1.43 2.72 2.72 0 01-2.89-.62 3 3 0 01-.69-3 4.3 4.3 0 012.58-2.43c1.11-.47 2.3-.7 3.39-1.22 2.31-1.1 3.91-3.38 5-5.77a7.89 7.89 0 00.81-5.33z" transform="translate(-155.73 -83.05)"/><path class="cls-1" d="M219.85 198.09a4 4 0 01.53 1c.29.63.69 1.53 1.14 2.55l.08.19h-.21l-1 .09c-.7 0-1.28.13-2 .12a.39.39 0 01-.26-.23.63.63 0 010-.27c0-.16.06-.28.09-.41l.18-.71a6.77 6.77 0 01.42-1.38 7.07 7.07 0 01-.2 1.43l-.14.72c-.05.24-.14.6 0 .57.5 0 1.21-.1 1.86-.15l1-.08-.13.21c-.42-1-.79-1.94-1-2.59a5.26 5.26 0 01-.36-1.06z" transform="translate(-155.73 -83.05)"/><path class="cls-2" d="M185.62 282.28l44.38-1.35 19.28 75.34-3.55 86.42h-23.51l2.91-84.58L208 305.66 210.62 446l-23.69.35-2.5-131.95c-.1-3.67-1.31-11.94-.86-15.58z" transform="translate(-155.73 -83.05)"/><path class="cls-3" d="M213.89 306.73a8.37 8.37 0 01-2.18-.13c-1.33-.16-3.17-.44-5.18-.84s-3.81-.86-5.1-1.23a8.45 8.45 0 01-2.06-.72c0-.14 3.26.64 7.26 1.44s7.27 1.33 7.26 1.48zM245.48 438c0 .14-5.31.26-11.87.26s-11.86-.12-11.86-.26 5.31-.26 11.86-.26 11.87.07 11.87.26zm-35.07 4.39c0 .15-5.15.26-11.51.26s-11.51-.11-11.51-.26 5.15-.26 11.51-.26 11.51.12 11.51.26z" transform="translate(-155.73 -83.05)"/><path class="cls-3" d="M207.36 442c-.15 0-.77-30.67-1.39-68.5S205 305 205.1 305s.76 30.67 1.39 68.51 1.01 68.49.87 68.49zm34.97-4a1.61 1.61 0 010-.41v-1.2c0-1.08.07-2.62.13-4.6.14-4 .34-9.8.59-16.93.55-14.32 1.3-34.05 2.14-55.85v-.59.08c-5.26-21.05-10-40.07-13.45-53.86-1.69-6.87-3.06-12.43-4-16.31l-1.07-4.44c-.11-.49-.2-.87-.26-1.16a2.19 2.19 0 01-.08-.4 2.71 2.71 0 01.13.39c.07.28.18.66.31 1.14.27 1 .66 2.52 1.16 4.42 1 3.87 2.42 9.42 4.17 16.27 3.49 13.78 8.29 32.79 13.6 53.82v.66c-.9 21.8-1.71 41.53-2.29 55.84l-.76 16.93c-.1 2-.17 3.52-.23 4.6 0 .5-.05.9-.07 1.19a2.64 2.64 0 01-.02.41z" transform="translate(-155.73 -83.05)"/><path class="cls-3" d="M234.68 356.61a27.7 27.7 0 01-5.19 1.16c-2.15.37-4 .62-4.83.67v-.21c.27.08.42.14.41.17s-.16.05-.44 0h-.61l.61-.18c.78-.22 2.62-.61 4.77-1a27.93 27.93 0 015.28-.61zm-.45 2.88a27.62 27.62 0 01-4.67-.22 26.17 26.17 0 01-4.64-.51 17.61 17.61 0 014.68 0 17.42 17.42 0 014.63.73z" transform="translate(-155.73 -83.05)"/><path d="M185.42 283.88a6.15 6.15 0 004.38 2.33 19.8 19.8 0 005.38-.11c11.44-1.27 23.57-2.44 34.78-5.17-14.51.82-29.83.54-44.34 1.35l-.15 1.24" transform="translate(-155.73 -83.05)" opacity=".2"/><path d="M44.65 221.28l8.18 31.73-.58-30.4-7.6-1.33z"/></g></svg>