<svg id="Speech_Bubble" data-name="Speech Bubble" xmlns="http://www.w3.org/2000/svg" viewBox="0 0 51.46 58.61"><defs><style>.cls-1{fill:#1fa9ff}</style></defs><path class="cls-1" d="M122.47 168.68H122l-1.36.1a15.43 15.43 0 00-2.19.29 13.53 13.53 0 00-1.39.27l-1.55.43a25.47 25.47 0 00-7.37 3.65 25.94 25.94 0 00-7.26 8.08 27.08 27.08 0 00-2.54 5.81 27.94 27.94 0 00-1.11 6.78 27.48 27.48 0 00.06 3.62c0 .61.17 1.22.25 1.84a11.82 11.82 0 00.35 1.85 26.39 26.39 0 0015 18.33 23.76 23.76 0 008.59 1.93 23.19 23.19 0 009-1.29l.88-.33h.12l.1.06 12.61 6.4-.37.32c-1.35-4.18-2.65-8.23-3.91-12.12v-.15l.11-.11a27 27 0 006.62-11 27.7 27.7 0 001-11.72 27.38 27.38 0 00-3.31-9.94 27 27 0 00-5.7-7 27.85 27.85 0 00-6.19-3.94 26.94 26.94 0 00-5.24-1.65l-2-.33-1.45-.11-.88-.06h-.3a1.36 1.36 0 01.3 0h.89l1.45.06 2 .29a26.5 26.5 0 015.31 1.59 27.79 27.79 0 016.3 3.93 27.07 27.07 0 015.82 7 27.45 27.45 0 013.41 10.07 28 28 0 01-.93 11.92 27.36 27.36 0 01-6.72 11.23l.06-.26c1.26 3.89 2.57 7.94 3.93 12.11l.19.61-.57-.29-12.61-6.39h.22l-.9.33a23.86 23.86 0 01-9.17 1.32 24.3 24.3 0 01-8.77-2A26.31 26.31 0 01100.25 209a26.7 26.7 0 01-2.83-7.4 15.32 15.32 0 01-.35-1.89c-.08-.63-.21-1.25-.24-1.87a29.55 29.55 0 011.11-10.56 26.89 26.89 0 012.61-5.88 26.17 26.17 0 017.41-8.13 25.28 25.28 0 017.49-3.62l1.57-.4a13.89 13.89 0 011.4-.25 14.85 14.85 0 012.21-.24l1.37-.05a3.36 3.36 0 01.47-.03z" transform="translate(-96.73 -168.67)"/><path class="cls-1" d="M128.17 192h-1.85l-4-5.62v-3.69s-2.86-.18-2.52 4.65 0 3.6 0 3.6-6.07 0-6.57.55-.53 6.41-.6 9.68a3.54 3.54 0 002.51 3.56 2.48 2.48 0 00.65.09c1.52 0 9.25-1.23 9.25-1.23h3.19z" transform="translate(-96.73 -168.67)"/><path class="cls-1" d="M36.73 22.34l-1.14 12.64h-3.17V22.6l4.31-.26z"/></svg>